<?xml version="1.0" standalone="no"?>
<!DOCTYPE svg PUBLIC "-//W3C//DTD SVG 20010904//EN"
 "http://www.w3.org/TR/2001/REC-SVG-20010904/DTD/svg10.dtd">
<svg version="1.0" xmlns="http://www.w3.org/2000/svg"
 width="222.000000pt" height="204.000000pt" viewBox="0 0 222.000000 204.000000"
 preserveAspectRatio="xMidYMid meet">

<g transform="translate(0.000000,204.000000) scale(0.100000,-0.100000)"
fill="#000000" stroke="none">
<path d="M1069 1842 c-47 -42 -152 -135 -234 -207 -82 -71 -230 -202 -330
-290 -99 -88 -211 -187 -248 -219 l-68 -59 35 -35 34 -35 59 52 c33 28 63 51
66 51 4 0 7 -196 7 -435 l0 -435 265 0 265 0 0 267 0 266 25 43 c36 62 100 97
175 97 31 -1 70 -8 86 -16 39 -20 90 -75 103 -110 7 -17 11 -132 11 -298 l0
-269 260 0 260 0 0 447 0 447 48 -47 48 -47 34 35 34 35 -89 91 c-50 50 -241
238 -426 419 l-335 329 -85 -77z m671 -1089 l0 -453 -160 0 -160 0 0 223 c0
262 -8 304 -73 374 -22 24 -61 56 -86 71 -41 24 -56 27 -141 27 -109 0 -134
-10 -213 -85 -78 -74 -87 -110 -87 -365 l0 -215 -170 0 -170 0 2 432 3 432
100 90 c55 49 206 183 335 297 l235 208 293 -292 292 -292 0 -452z"/>
</g>
</svg>
