<svg width="17" height="16" viewBox="0 0 17 16" fill="none" xmlns="http://www.w3.org/2000/svg">
<path d="M14.3613 10.8189H13.3242V9.76172C13.3242 9.4755 12.9401 9.22137 12.6946 9.22137C12.4491 9.22137 12.065 9.4755 12.065 9.76172V10.8189H11.0279C10.6761 10.8189 10.4724 11.1614 10.4724 11.4476C10.4724 11.7339 10.6761 12.0715 11.0279 12.0715H12.065V13.0951C12.065 13.3813 12.3753 13.7386 12.6946 13.7386C13.0139 13.7386 13.3242 13.3813 13.3242 13.0951V12.0715H14.3613C14.7131 12.0715 14.9168 11.7339 14.9168 11.4476C14.9168 11.1614 14.7131 10.8189 14.3613 10.8189Z" fill="#121212"/>
<path d="M1.5835 3.01821C1.5835 2.60041 1.87368 2.26172 2.23164 2.26172H14.2687C14.6266 2.26172 14.9168 2.60041 14.9168 3.01821C14.9168 3.436 14.6266 3.7747 14.2687 3.7747H2.23164C1.87368 3.7747 1.5835 3.436 1.5835 3.01821Z" fill="#121212"/>
<path d="M1.5835 7.12486C1.5835 6.70706 1.87368 6.36837 2.23164 6.36837H14.2687C14.6266 6.36837 14.9168 6.70706 14.9168 7.12486C14.9168 7.54265 14.6266 7.88135 14.2687 7.88135H2.23164C1.87368 7.88135 1.5835 7.54265 1.5835 7.12486Z" fill="#121212"/>
<path d="M1.5835 11.2315C1.5835 10.8137 1.87368 10.475 2.23164 10.475H7.97238C8.33035 10.475 8.62053 10.8137 8.62053 11.2315C8.62053 11.6493 8.33035 11.988 7.97238 11.988H2.23164C1.87368 11.988 1.5835 11.6493 1.5835 11.2315Z" fill="#121212"/>
</svg>
