<svg width="16" height="17" viewBox="0 0 16 17" fill="none" xmlns="http://www.w3.org/2000/svg">
<g clip-path="url(#clip0_19070_3672)">
<path d="M8 10.3999C9.10457 10.3999 10 9.50447 10 8.3999C10 7.29533 9.10457 6.3999 8 6.3999C6.89543 6.3999 6 7.29533 6 8.3999C6 9.50447 6.89543 10.3999 8 10.3999Z" stroke="white" stroke-width="1.5" stroke-linecap="round" stroke-linejoin="round"/>
<path d="M12.9333 10.3997C12.8445 10.6008 12.8181 10.8239 12.8573 11.0401C12.8965 11.2564 12.9996 11.456 13.1533 11.6131L13.1933 11.6531C13.3173 11.7769 13.4156 11.924 13.4827 12.0858C13.5498 12.2477 13.5843 12.4212 13.5843 12.5964C13.5843 12.7716 13.5498 12.9451 13.4827 13.107C13.4156 13.2689 13.3173 13.4159 13.1933 13.5397C13.0695 13.6637 12.9224 13.7621 12.7605 13.8292C12.5987 13.8963 12.4252 13.9308 12.25 13.9308C12.0747 13.9308 11.9012 13.8963 11.7394 13.8292C11.5775 13.7621 11.4305 13.6637 11.3066 13.5397L11.2666 13.4997C11.1095 13.346 10.9099 13.2429 10.6937 13.2037C10.4774 13.1645 10.2544 13.191 10.0533 13.2797C9.85611 13.3642 9.68795 13.5046 9.5695 13.6834C9.45105 13.8623 9.38748 14.0719 9.38663 14.2864V14.3997C9.38663 14.7534 9.24615 15.0925 8.9961 15.3425C8.74605 15.5926 8.40691 15.7331 8.05329 15.7331C7.69967 15.7331 7.36053 15.5926 7.11048 15.3425C6.86043 15.0925 6.71996 14.7534 6.71996 14.3997V14.3397C6.7148 14.1191 6.64337 13.9051 6.51497 13.7255C6.38656 13.546 6.20712 13.4093 5.99996 13.3331C5.79888 13.2443 5.57583 13.2179 5.35957 13.2571C5.1433 13.2963 4.94375 13.3994 4.78663 13.5531L4.74663 13.5931C4.62279 13.717 4.47574 13.8154 4.31388 13.8825C4.15202 13.9496 3.97851 13.9841 3.80329 13.9841C3.62807 13.9841 3.45457 13.9496 3.29271 13.8825C3.13084 13.8154 2.98379 13.717 2.85996 13.5931C2.73599 13.4692 2.63765 13.3222 2.57055 13.1603C2.50345 12.9985 2.46891 12.825 2.46891 12.6497C2.46891 12.4745 2.50345 12.301 2.57055 12.1392C2.63765 11.9773 2.73599 11.8302 2.85996 11.7064L2.89996 11.6664C3.05365 11.5093 3.15675 11.3097 3.19596 11.0935C3.23517 10.8772 3.2087 10.6541 3.11996 10.4531C3.03545 10.2559 2.89513 10.0877 2.71627 9.96928C2.53741 9.85083 2.32782 9.78726 2.11329 9.78641H1.99996C1.64634 9.78641 1.3072 9.64593 1.05715 9.39588C0.807102 9.14583 0.666626 8.80669 0.666626 8.45307C0.666626 8.09945 0.807102 7.76031 1.05715 7.51026C1.3072 7.26022 1.64634 7.11974 1.99996 7.11974H2.05996C2.28062 7.11458 2.49463 7.04315 2.67416 6.91475C2.85369 6.78634 2.99044 6.6069 3.06663 6.39974C3.15537 6.19866 3.18184 5.97561 3.14263 5.75935C3.10342 5.54308 3.00032 5.34353 2.84663 5.18641L2.80663 5.14641C2.68266 5.02258 2.58431 4.87552 2.51721 4.71366C2.45011 4.5518 2.41558 4.37829 2.41558 4.20307C2.41558 4.02785 2.45011 3.85435 2.51721 3.69249C2.58431 3.53062 2.68266 3.38357 2.80663 3.25974C2.93046 3.13577 3.07751 3.03743 3.23937 2.97033C3.40124 2.90323 3.57474 2.86869 3.74996 2.86869C3.92518 2.86869 4.09868 2.90323 4.26055 2.97033C4.42241 3.03743 4.56946 3.13577 4.69329 3.25974L4.73329 3.29974C4.89041 3.45343 5.08997 3.55653 5.30623 3.59574C5.5225 3.63495 5.74555 3.60848 5.94663 3.51974H5.99996C6.19714 3.43523 6.3653 3.29491 6.48375 3.11605C6.6022 2.93719 6.66577 2.7276 6.66663 2.51307V2.39974C6.66663 2.04612 6.8071 1.70698 7.05715 1.45693C7.3072 1.20688 7.64634 1.06641 7.99996 1.06641C8.35358 1.06641 8.69272 1.20688 8.94277 1.45693C9.19282 1.70698 9.33329 2.04612 9.33329 2.39974V2.45974C9.33415 2.67426 9.39771 2.88386 9.51616 3.06272C9.63461 3.24158 9.80278 3.3819 9.99996 3.46641C10.201 3.55515 10.4241 3.58162 10.6404 3.54241C10.8566 3.5032 11.0562 3.4001 11.2133 3.24641L11.2533 3.20641C11.3771 3.08244 11.5242 2.98409 11.686 2.91699C11.8479 2.84989 12.0214 2.81536 12.1966 2.81536C12.3718 2.81536 12.5453 2.84989 12.7072 2.91699C12.8691 2.98409 13.0161 3.08244 13.14 3.20641C13.2639 3.33024 13.3623 3.47729 13.4294 3.63915C13.4965 3.80102 13.531 3.97452 13.531 4.14974C13.531 4.32496 13.4965 4.49846 13.4294 4.66033C13.3623 4.82219 13.2639 4.96924 13.14 5.09307L13.1 5.13307C12.9463 5.29019 12.8432 5.48975 12.804 5.70601C12.7647 5.92228 12.7912 6.14533 12.88 6.34641V6.39974C12.9645 6.59692 13.1048 6.76508 13.2836 6.88353C13.4625 7.00198 13.6721 7.06555 13.8866 7.06641H14C14.3536 7.06641 14.6927 7.20688 14.9428 7.45693C15.1928 7.70698 15.3333 8.04612 15.3333 8.39974C15.3333 8.75336 15.1928 9.0925 14.9428 9.34255C14.6927 9.5926 14.3536 9.73307 14 9.73307H13.94C13.7254 9.73393 13.5158 9.79749 13.337 9.91594C13.1581 10.0344 13.0178 10.2026 12.9333 10.3997V10.3997Z" stroke="white" stroke-width="1.5" stroke-linecap="round" stroke-linejoin="round"/>
</g>
<defs>
<clipPath id="clip0_19070_3672">
<rect width="16" height="16" fill="white" transform="translate(0 0.399902)"/>
</clipPath>
</defs>
</svg>
